<svg xmlns="http://www.w3.org/2000/svg" viewBox="0 0 294 128"><g fill="#FFF"><path d="M52.3 30.8c-17.3 0-31.1 9.6-37 24.4V11h-3.2v102.6h3.2V89.2c5.9 14.7 19.7 24.4 37 24.4 23.2 0 40.2-17.5 40.2-41.3 0-24.1-17-41.5-40.2-41.5zm0 79.6c-21.5 0-37-16-37-38.1S30.8 34 52.3 34s37 16.2 37 38.3-15.5 38.1-37 38.1zm88.9-79.6c-23.1 0-40.2 17.3-40.2 41.3 0 24.2 17.1 41.5 40.2 41.5s40.2-17.3 40.2-41.5c0-24-17.1-41.3-40.2-41.3zm0 79.6c-21.5 0-37-15.7-37-38.3 0-22.4 15.5-38.1 37-38.1s37 15.7 37 38.1c0 22.6-15.5 38.3-37 38.3zm104.3-79.6h3.8l-29.6 39.9 31.9 42.9h-4l-30-40.2-29.8 40.2h-4l31.9-42.9-29.5-39.9h3.8l27.7 37.3 27.8-37.3z"/><path d="M262.7 30.8h3.8l-29.6 39.9 31.9 42.9h-4l-30-40.2-29.8 40.2h-4l31.9-42.9-29.5-39.9h3.8L235 68.1l27.7-37.3zm17.1 82.8V30.8h3.2v82.8h-3.2zm0-98.5V11h3.2v4.1h-3.2z"/></g></svg>